<svg width="200" height="200" viewBox="0 0 200 200" fill="none" xmlns="http://www.w3.org/2000/svg">
<path d="M150 100C150 127.614 127.614 150 100 150C72.3858 150 50 127.614 50 100C50 72.3858 72.3858 50 100 50C127.614 50 150 72.3858 150 100ZM60 100C60 122.091 77.9086 140 100 140C122.091 140 140 122.091 140 100C140 77.9086 122.091 60 100 60C77.9086 60 60 77.9086 60 100Z" fill="#505050"/>
<mask id="path-2-outside-1_26_9" maskUnits="userSpaceOnUse" x="81" y="87" width="38" height="26" fill="black">
<rect fill="white" x="81" y="87" width="38" height="26"/>
<path d="M98.8894 88.2727V97H97.8667L93.111 90.1477H93.0257V97H91.9689V88.2727H92.9917L97.7644 95.142H97.8496V88.2727H98.8894ZM108.368 92.6364C108.368 93.5568 108.202 94.3523 107.869 95.0227C107.537 95.6932 107.081 96.2102 106.501 96.5739C105.922 96.9375 105.26 97.1193 104.515 97.1193C103.771 97.1193 103.109 96.9375 102.53 96.5739C101.95 96.2102 101.494 95.6932 101.162 95.0227C100.829 94.3523 100.663 93.5568 100.663 92.6364C100.663 91.7159 100.829 90.9205 101.162 90.25C101.494 89.5795 101.95 89.0625 102.53 88.6989C103.109 88.3352 103.771 88.1534 104.515 88.1534C105.26 88.1534 105.922 88.3352 106.501 88.6989C107.081 89.0625 107.537 89.5795 107.869 90.25C108.202 90.9205 108.368 91.7159 108.368 92.6364ZM107.345 92.6364C107.345 91.8807 107.219 91.2429 106.966 90.723C106.716 90.2031 106.376 89.8097 105.947 89.5426C105.521 89.2756 105.044 89.142 104.515 89.142C103.987 89.142 103.508 89.2756 103.079 89.5426C102.653 89.8097 102.314 90.2031 102.061 90.723C101.811 91.2429 101.686 91.8807 101.686 92.6364C101.686 93.392 101.811 94.0298 102.061 94.5497C102.314 95.0696 102.653 95.4631 103.079 95.7301C103.508 95.9972 103.987 96.1307 104.515 96.1307C105.044 96.1307 105.521 95.9972 105.947 95.7301C106.376 95.4631 106.716 95.0696 106.966 94.5497C107.219 94.0298 107.345 93.392 107.345 92.6364ZM83.2933 103.273V112H82.2365V103.273H83.2933ZM85.4123 103.273H86.6737L89.6396 110.517H89.7418L92.7077 103.273H93.9691V112H92.9805V105.369H92.8952L90.168 112H89.2134L86.4862 105.369H86.4009V112H85.4123V103.273ZM96.446 112H95.3381L98.5426 103.273H99.6335L102.838 112H101.73L99.1222 104.653H99.054L96.446 112ZM96.8551 108.591H101.321V109.528H96.8551V108.591ZM109.753 106C109.659 105.713 109.536 105.456 109.382 105.229C109.232 104.999 109.051 104.803 108.841 104.641C108.634 104.479 108.398 104.355 108.134 104.27C107.87 104.185 107.58 104.142 107.265 104.142C106.748 104.142 106.277 104.276 105.854 104.543C105.431 104.81 105.094 105.203 104.844 105.723C104.594 106.243 104.469 106.881 104.469 107.636C104.469 108.392 104.596 109.03 104.848 109.55C105.101 110.07 105.444 110.463 105.875 110.73C106.307 110.997 106.793 111.131 107.333 111.131C107.833 111.131 108.273 111.024 108.654 110.811C109.037 110.595 109.336 110.291 109.549 109.899C109.765 109.504 109.873 109.04 109.873 108.506L110.196 108.574H107.571V107.636H110.895V108.574C110.895 109.293 110.742 109.918 110.435 110.449C110.131 110.98 109.711 111.392 109.174 111.685C108.64 111.974 108.026 112.119 107.333 112.119C106.56 112.119 105.881 111.938 105.296 111.574C104.713 111.21 104.259 110.693 103.932 110.023C103.608 109.352 103.446 108.557 103.446 107.636C103.446 106.946 103.539 106.325 103.723 105.774C103.911 105.22 104.175 104.749 104.516 104.359C104.857 103.97 105.26 103.672 105.726 103.464C106.192 103.257 106.705 103.153 107.265 103.153C107.725 103.153 108.154 103.223 108.551 103.362C108.952 103.499 109.309 103.693 109.621 103.946C109.936 104.196 110.199 104.496 110.409 104.845C110.62 105.192 110.765 105.577 110.844 106H109.753ZM112.705 112V103.273H117.972V104.21H113.762V107.159H117.7V108.097H113.762V111.062H118.04V112H112.705Z"/>
</mask>
<path d="M98.8894 88.2727V97H97.8667L93.111 90.1477H93.0257V97H91.9689V88.2727H92.9917L97.7644 95.142H97.8496V88.2727H98.8894ZM108.368 92.6364C108.368 93.5568 108.202 94.3523 107.869 95.0227C107.537 95.6932 107.081 96.2102 106.501 96.5739C105.922 96.9375 105.26 97.1193 104.515 97.1193C103.771 97.1193 103.109 96.9375 102.53 96.5739C101.95 96.2102 101.494 95.6932 101.162 95.0227C100.829 94.3523 100.663 93.5568 100.663 92.6364C100.663 91.7159 100.829 90.9205 101.162 90.25C101.494 89.5795 101.95 89.0625 102.53 88.6989C103.109 88.3352 103.771 88.1534 104.515 88.1534C105.26 88.1534 105.922 88.3352 106.501 88.6989C107.081 89.0625 107.537 89.5795 107.869 90.25C108.202 90.9205 108.368 91.7159 108.368 92.6364ZM107.345 92.6364C107.345 91.8807 107.219 91.2429 106.966 90.723C106.716 90.2031 106.376 89.8097 105.947 89.5426C105.521 89.2756 105.044 89.142 104.515 89.142C103.987 89.142 103.508 89.2756 103.079 89.5426C102.653 89.8097 102.314 90.2031 102.061 90.723C101.811 91.2429 101.686 91.8807 101.686 92.6364C101.686 93.392 101.811 94.0298 102.061 94.5497C102.314 95.0696 102.653 95.4631 103.079 95.7301C103.508 95.9972 103.987 96.1307 104.515 96.1307C105.044 96.1307 105.521 95.9972 105.947 95.7301C106.376 95.4631 106.716 95.0696 106.966 94.5497C107.219 94.0298 107.345 93.392 107.345 92.6364ZM83.2933 103.273V112H82.2365V103.273H83.2933ZM85.4123 103.273H86.6737L89.6396 110.517H89.7418L92.7077 103.273H93.9691V112H92.9805V105.369H92.8952L90.168 112H89.2134L86.4862 105.369H86.4009V112H85.4123V103.273ZM96.446 112H95.3381L98.5426 103.273H99.6335L102.838 112H101.73L99.1222 104.653H99.054L96.446 112ZM96.8551 108.591H101.321V109.528H96.8551V108.591ZM109.753 106C109.659 105.713 109.536 105.456 109.382 105.229C109.232 104.999 109.051 104.803 108.841 104.641C108.634 104.479 108.398 104.355 108.134 104.27C107.87 104.185 107.58 104.142 107.265 104.142C106.748 104.142 106.277 104.276 105.854 104.543C105.431 104.81 105.094 105.203 104.844 105.723C104.594 106.243 104.469 106.881 104.469 107.636C104.469 108.392 104.596 109.03 104.848 109.55C105.101 110.07 105.444 110.463 105.875 110.73C106.307 110.997 106.793 111.131 107.333 111.131C107.833 111.131 108.273 111.024 108.654 110.811C109.037 110.595 109.336 110.291 109.549 109.899C109.765 109.504 109.873 109.04 109.873 108.506L110.196 108.574H107.571V107.636H110.895V108.574C110.895 109.293 110.742 109.918 110.435 110.449C110.131 110.98 109.711 111.392 109.174 111.685C108.64 111.974 108.026 112.119 107.333 112.119C106.56 112.119 105.881 111.938 105.296 111.574C104.713 111.21 104.259 110.693 103.932 110.023C103.608 109.352 103.446 108.557 103.446 107.636C103.446 106.946 103.539 106.325 103.723 105.774C103.911 105.22 104.175 104.749 104.516 104.359C104.857 103.97 105.26 103.672 105.726 103.464C106.192 103.257 106.705 103.153 107.265 103.153C107.725 103.153 108.154 103.223 108.551 103.362C108.952 103.499 109.309 103.693 109.621 103.946C109.936 104.196 110.199 104.496 110.409 104.845C110.62 105.192 110.765 105.577 110.844 106H109.753ZM112.705 112V103.273H117.972V104.21H113.762V107.159H117.7V108.097H113.762V111.062H118.04V112H112.705Z" fill="black"/>
<path d="M98.8894 88.2727H99.1894V87.9727H98.8894V88.2727ZM98.8894 97V97.3H99.1894V97H98.8894ZM97.8667 97L97.6202 97.171L97.7097 97.3H97.8667V97ZM93.111 90.1477L93.3574 89.9767L93.2679 89.8477H93.111V90.1477ZM93.0257 90.1477V89.8477H92.7257V90.1477H93.0257ZM93.0257 97V97.3H93.3257V97H93.0257ZM91.9689 97H91.6689V97.3H91.9689V97ZM91.9689 88.2727V87.9727H91.6689V88.2727H91.9689ZM92.9917 88.2727L93.238 88.1016L93.1485 87.9727H92.9917V88.2727ZM97.7644 95.142L97.518 95.3132L97.6075 95.442H97.7644V95.142ZM97.8496 95.142V95.442H98.1496V95.142H97.8496ZM97.8496 88.2727V87.9727H97.5496V88.2727H97.8496ZM98.5894 88.2727V97H99.1894V88.2727H98.5894ZM98.8894 96.7H97.8667V97.3H98.8894V96.7ZM98.1131 96.829L93.3574 89.9767L92.8645 90.3188L97.6202 97.171L98.1131 96.829ZM93.111 89.8477H93.0257V90.4477H93.111V89.8477ZM92.7257 90.1477V97H93.3257V90.1477H92.7257ZM93.0257 96.7H91.9689V97.3H93.0257V96.7ZM92.2689 97V88.2727H91.6689V97H92.2689ZM91.9689 88.5727H92.9917V87.9727H91.9689V88.5727ZM92.7453 88.4439L97.518 95.3132L98.0108 94.9709L93.238 88.1016L92.7453 88.4439ZM97.7644 95.442H97.8496V94.842H97.7644V95.442ZM98.1496 95.142V88.2727H97.5496V95.142H98.1496ZM97.8496 88.5727H98.8894V87.9727H97.8496V88.5727ZM107.869 95.0227L107.6 94.8895L107.6 94.8895L107.869 95.0227ZM106.501 96.5739L106.661 96.828L106.661 96.828L106.501 96.5739ZM102.53 96.5739L102.37 96.828L102.37 96.828L102.53 96.5739ZM101.162 95.0227L101.431 94.8895L101.431 94.8895L101.162 95.0227ZM106.501 88.6989L106.661 88.4447L106.661 88.4447L106.501 88.6989ZM107.869 90.25L107.6 90.3833L107.6 90.3833L107.869 90.25ZM106.966 90.723L106.695 90.853L106.696 90.8542L106.966 90.723ZM105.947 89.5426L105.788 89.7968L105.789 89.7973L105.947 89.5426ZM103.079 89.5426L102.921 89.2879L102.92 89.2884L103.079 89.5426ZM102.061 90.723L101.791 90.5918L101.791 90.593L102.061 90.723ZM102.061 94.5497L101.791 94.6797L101.791 94.6809L102.061 94.5497ZM103.079 95.7301L102.92 95.9843L102.921 95.9848L103.079 95.7301ZM105.947 95.7301L105.789 95.4754L105.788 95.4759L105.947 95.7301ZM106.966 94.5497L106.696 94.4185L106.695 94.4197L106.966 94.5497ZM108.068 92.6364C108.068 93.521 107.908 94.2689 107.6 94.8895L108.138 95.156C108.495 94.4357 108.668 93.5926 108.668 92.6364H108.068ZM107.6 94.8895C107.29 95.5151 106.87 95.9883 106.342 96.3197L106.661 96.828C107.291 96.4322 107.783 95.8712 108.138 95.156L107.6 94.8895ZM106.342 96.3197C105.814 96.6508 105.209 96.8193 104.515 96.8193V97.4193C105.311 97.4193 106.029 97.2242 106.661 96.828L106.342 96.3197ZM104.515 96.8193C103.822 96.8193 103.217 96.6508 102.689 96.3197L102.37 96.828C103.002 97.2242 103.72 97.4193 104.515 97.4193V96.8193ZM102.689 96.3197C102.161 95.9883 101.741 95.5151 101.431 94.8895L100.893 95.156C101.248 95.8712 101.739 96.4322 102.37 96.828L102.689 96.3197ZM101.431 94.8895C101.123 94.2689 100.963 93.521 100.963 92.6364H100.363C100.363 93.5926 100.536 94.4357 100.893 95.156L101.431 94.8895ZM100.963 92.6364C100.963 91.7517 101.123 91.0039 101.431 90.3833L100.893 90.1167C100.536 90.8371 100.363 91.6801 100.363 92.6364H100.963ZM101.431 90.3833C101.741 89.7576 102.161 89.2845 102.689 88.953L102.37 88.4447C101.739 88.8405 101.248 89.4015 100.893 90.1167L101.431 90.3833ZM102.689 88.953C103.217 88.6219 103.822 88.4534 104.515 88.4534V87.8534C103.72 87.8534 103.002 88.0485 102.37 88.4447L102.689 88.953ZM104.515 88.4534C105.209 88.4534 105.814 88.6219 106.342 88.953L106.661 88.4447C106.029 88.0485 105.311 87.8534 104.515 87.8534V88.4534ZM106.342 88.953C106.87 89.2845 107.29 89.7576 107.6 90.3833L108.138 90.1167C107.783 89.4015 107.291 88.8405 106.661 88.4447L106.342 88.953ZM107.6 90.3833C107.908 91.0039 108.068 91.7517 108.068 92.6364H108.668C108.668 91.6801 108.495 90.8371 108.138 90.1167L107.6 90.3833ZM107.645 92.6364C107.645 91.8486 107.513 91.1631 107.236 90.5918L106.696 90.8542C106.924 91.3227 107.045 91.9127 107.045 92.6364H107.645ZM107.236 90.593C106.965 90.0292 106.59 89.5892 106.106 89.2879L105.789 89.7973C106.163 90.0302 106.466 90.377 106.695 90.853L107.236 90.593ZM106.107 89.2884C105.63 88.9899 105.097 88.842 104.515 88.842V89.442C104.991 89.442 105.412 89.5613 105.788 89.7968L106.107 89.2884ZM104.515 88.842C103.934 88.842 103.4 88.9899 102.921 89.2879L103.238 89.7973C103.617 89.5613 104.04 89.442 104.515 89.442V88.842ZM102.92 89.2884C102.44 89.5895 102.065 90.0291 101.791 90.5918L102.331 90.8542C102.563 90.3772 102.867 90.0298 103.239 89.7968L102.92 89.2884ZM101.791 90.593C101.516 91.164 101.386 91.8491 101.386 92.6364H101.986C101.986 91.9123 102.106 91.3218 102.331 90.853L101.791 90.593ZM101.386 92.6364C101.386 93.4237 101.516 94.1087 101.791 94.6797L102.331 94.4197C102.106 93.9509 101.986 93.3604 101.986 92.6364H101.386ZM101.791 94.6809C102.065 95.2436 102.44 95.6832 102.92 95.9843L103.239 95.4759C102.867 95.243 102.563 94.8956 102.331 94.4185L101.791 94.6809ZM102.921 95.9848C103.4 96.2828 103.934 96.4307 104.515 96.4307V95.8307C104.04 95.8307 103.617 95.7115 103.238 95.4754L102.921 95.9848ZM104.515 96.4307C105.097 96.4307 105.63 96.2828 106.107 95.9843L105.788 95.4759C105.412 95.7115 104.991 95.8307 104.515 95.8307V96.4307ZM106.106 95.9848C106.59 95.6836 106.965 95.2435 107.236 94.6797L106.695 94.4197C106.466 94.8957 106.163 95.2426 105.789 95.4754L106.106 95.9848ZM107.236 94.6809C107.513 94.1096 107.645 93.4241 107.645 92.6364H107.045C107.045 93.36 106.924 93.9501 106.696 94.4185L107.236 94.6809ZM83.2933 103.273H83.5933V102.973H83.2933V103.273ZM83.2933 112V112.3H83.5933V112H83.2933ZM82.2365 112H81.9365V112.3H82.2365V112ZM82.2365 103.273V102.973H81.9365V103.273H82.2365ZM82.9933 103.273V112H83.5933V103.273H82.9933ZM83.2933 111.7H82.2365V112.3H83.2933V111.7ZM82.5365 112V103.273H81.9365V112H82.5365ZM82.2365 103.573H83.2933V102.973H82.2365V103.573ZM85.4123 103.273V102.973H85.1123V103.273H85.4123ZM86.6737 103.273L86.9513 103.159L86.875 102.973H86.6737V103.273ZM89.6396 110.517L89.3619 110.631L89.4382 110.817H89.6396V110.517ZM89.7418 110.517V110.817H89.9432L90.0195 110.631L89.7418 110.517ZM92.7077 103.273V102.973H92.5064L92.4301 103.159L92.7077 103.273ZM93.9691 103.273H94.2691V102.973H93.9691V103.273ZM93.9691 112V112.3H94.2691V112H93.9691ZM92.9805 112H92.6805V112.3H92.9805V112ZM92.9805 105.369H93.2805V105.069H92.9805V105.369ZM92.8952 105.369V105.069H92.6942L92.6178 105.255L92.8952 105.369ZM90.168 112V112.3H90.369L90.4454 112.114L90.168 112ZM89.2134 112L88.936 112.114L89.0124 112.3H89.2134V112ZM86.4862 105.369L86.7636 105.255L86.6871 105.069H86.4862V105.369ZM86.4009 105.369V105.069H86.1009V105.369H86.4009ZM86.4009 112V112.3H86.7009V112H86.4009ZM85.4123 112H85.1123V112.3H85.4123V112ZM85.4123 103.573H86.6737V102.973H85.4123V103.573ZM86.396 103.386L89.3619 110.631L89.9172 110.403L86.9513 103.159L86.396 103.386ZM89.6396 110.817H89.7418V110.217H89.6396V110.817ZM90.0195 110.631L92.9854 103.386L92.4301 103.159L89.4642 110.403L90.0195 110.631ZM92.7077 103.573H93.9691V102.973H92.7077V103.573ZM93.6691 103.273V112H94.2691V103.273H93.6691ZM93.9691 111.7H92.9805V112.3H93.9691V111.7ZM93.2805 112V105.369H92.6805V112H93.2805ZM92.9805 105.069H92.8952V105.669H92.9805V105.069ZM92.6178 105.255L89.8905 111.886L90.4454 112.114L93.1727 105.483L92.6178 105.255ZM90.168 111.7H89.2134V112.3H90.168V111.7ZM89.4909 111.886L86.7636 105.255L86.2087 105.483L88.936 112.114L89.4909 111.886ZM86.4862 105.069H86.4009V105.669H86.4862V105.069ZM86.1009 105.369V112H86.7009V105.369H86.1009ZM86.4009 111.7H85.4123V112.3H86.4009V111.7ZM85.7123 112V103.273H85.1123V112H85.7123ZM96.446 112V112.3H96.6579L96.7287 112.1L96.446 112ZM95.3381 112L95.0565 111.897L94.9083 112.3H95.3381V112ZM98.5426 103.273V102.973H98.3332L98.261 103.169L98.5426 103.273ZM99.6335 103.273L99.9151 103.169L99.843 102.973H99.6335V103.273ZM102.838 112V112.3H103.268L103.12 111.897L102.838 112ZM101.73 112L101.447 112.1L101.518 112.3H101.73V112ZM99.1222 104.653L99.4049 104.553L99.334 104.353H99.1222V104.653ZM99.054 104.653V104.353H98.8421L98.7713 104.553L99.054 104.653ZM96.8551 108.591V108.291H96.5551V108.591H96.8551ZM101.321 108.591H101.621V108.291H101.321V108.591ZM101.321 109.528V109.828H101.621V109.528H101.321ZM96.8551 109.528H96.5551V109.828H96.8551V109.528ZM96.446 111.7H95.3381V112.3H96.446V111.7ZM95.6197 112.103L98.8242 103.376L98.261 103.169L95.0565 111.897L95.6197 112.103ZM98.5426 103.573H99.6335V102.973H98.5426V103.573ZM99.3519 103.376L102.556 112.103L103.12 111.897L99.9151 103.169L99.3519 103.376ZM102.838 111.7H101.73V112.3H102.838V111.7ZM102.013 111.9L99.4049 104.553L98.8394 104.754L101.447 112.1L102.013 111.9ZM99.1222 104.353H99.054V104.953H99.1222V104.353ZM98.7713 104.553L96.1633 111.9L96.7287 112.1L99.3367 104.754L98.7713 104.553ZM96.8551 108.891H101.321V108.291H96.8551V108.891ZM101.021 108.591V109.528H101.621V108.591H101.021ZM101.321 109.228H96.8551V109.828H101.321V109.228ZM97.1551 109.528V108.591H96.5551V109.528H97.1551ZM109.753 106L109.468 106.093L109.536 106.3H109.753V106ZM109.382 105.229L109.131 105.393L109.134 105.397L109.382 105.229ZM108.841 104.641L108.657 104.877L108.658 104.878L108.841 104.641ZM108.134 104.27L108.226 103.984L108.226 103.984L108.134 104.27ZM104.844 105.723L105.114 105.853L105.114 105.853L104.844 105.723ZM104.848 109.55L104.579 109.681L104.579 109.681L104.848 109.55ZM108.654 110.811L108.8 111.073L108.801 111.073L108.654 110.811ZM109.549 109.899L109.285 109.755L109.285 109.756L109.549 109.899ZM109.873 108.506L109.934 108.212L109.573 108.136V108.506H109.873ZM110.196 108.574V108.874L110.258 108.28L110.196 108.574ZM107.571 108.574H107.271V108.874H107.571V108.574ZM107.571 107.636V107.336H107.271V107.636H107.571ZM110.895 107.636H111.195V107.336H110.895V107.636ZM110.435 110.449L110.175 110.299L110.175 110.3L110.435 110.449ZM109.174 111.685L109.317 111.948L109.317 111.948L109.174 111.685ZM105.296 111.574L105.137 111.828L105.137 111.829L105.296 111.574ZM103.932 110.023L103.662 110.153L103.662 110.154L103.932 110.023ZM103.723 105.774L103.439 105.678L103.439 105.679L103.723 105.774ZM104.516 104.359L104.742 104.557L104.742 104.557L104.516 104.359ZM108.551 103.362L108.452 103.645L108.455 103.646L108.551 103.362ZM109.621 103.946L109.432 104.179L109.435 104.181L109.621 103.946ZM110.409 104.845L110.152 105L110.153 105.001L110.409 104.845ZM110.844 106V106.3H111.206L111.139 105.945L110.844 106ZM110.038 105.907C109.937 105.596 109.802 105.313 109.631 105.061L109.134 105.397C109.27 105.599 109.382 105.83 109.468 106.093L110.038 105.907ZM109.633 105.064C109.465 104.807 109.262 104.586 109.024 104.403L108.658 104.878C108.841 105.019 108.999 105.19 109.131 105.393L109.633 105.064ZM109.026 104.404C108.789 104.219 108.522 104.08 108.226 103.984L108.042 104.555C108.274 104.63 108.478 104.738 108.657 104.877L109.026 104.404ZM108.226 103.984C107.928 103.888 107.607 103.842 107.265 103.842V104.442C107.553 104.442 107.811 104.481 108.042 104.555L108.226 103.984ZM107.265 103.842C106.693 103.842 106.167 103.991 105.694 104.289L106.014 104.796C106.388 104.561 106.802 104.442 107.265 104.442V103.842ZM105.694 104.289C105.216 104.59 104.844 105.03 104.574 105.593L105.114 105.853C105.344 105.376 105.645 105.029 106.014 104.796L105.694 104.289ZM104.574 105.593C104.299 106.164 104.169 106.849 104.169 107.636H104.769C104.769 106.912 104.889 106.322 105.114 105.853L104.574 105.593ZM104.169 107.636C104.169 108.424 104.301 109.11 104.579 109.681L105.118 109.419C104.89 108.95 104.769 108.36 104.769 107.636H104.169ZM104.579 109.681C104.853 110.245 105.231 110.684 105.718 110.985L106.033 110.475C105.656 110.242 105.35 109.895 105.118 109.419L104.579 109.681ZM105.718 110.985C106.2 111.284 106.741 111.431 107.333 111.431V110.831C106.845 110.831 106.415 110.711 106.033 110.475L105.718 110.985ZM107.333 111.431C107.876 111.431 108.369 111.314 108.8 111.073L108.507 110.549C108.178 110.734 107.789 110.831 107.333 110.831V111.431ZM108.801 111.073C109.234 110.829 109.573 110.483 109.812 110.042L109.285 109.756C109.099 110.099 108.84 110.362 108.507 110.55L108.801 111.073ZM109.812 110.043C110.056 109.596 110.173 109.081 110.173 108.506H109.573C109.573 108.999 109.473 109.412 109.285 109.755L109.812 110.043ZM109.811 108.799L110.135 108.867L110.258 108.28L109.934 108.212L109.811 108.799ZM110.196 108.274H107.571V108.874H110.196V108.274ZM107.871 108.574V107.636H107.271V108.574H107.871ZM107.571 107.936H110.895V107.336H107.571V107.936ZM110.595 107.636V108.574H111.195V107.636H110.595ZM110.595 108.574C110.595 109.249 110.451 109.82 110.175 110.299L110.695 110.599C111.032 110.015 111.195 109.336 111.195 108.574H110.595ZM110.175 110.3C109.898 110.783 109.518 111.155 109.03 111.421L109.317 111.948C109.903 111.629 110.364 111.177 110.695 110.598L110.175 110.3ZM109.031 111.421C108.546 111.684 107.983 111.819 107.333 111.819V112.419C108.069 112.419 108.733 112.265 109.317 111.948L109.031 111.421ZM107.333 111.819C106.609 111.819 105.986 111.65 105.454 111.319L105.137 111.829C105.776 112.225 106.511 112.419 107.333 112.419V111.819ZM105.455 111.319C104.924 110.988 104.506 110.516 104.202 109.891L103.662 110.154C104.012 110.871 104.503 111.432 105.137 111.828L105.455 111.319ZM104.202 109.892C103.902 109.271 103.746 108.522 103.746 107.636H103.146C103.146 108.592 103.314 109.434 103.662 110.153L104.202 109.892ZM103.746 107.636C103.746 106.973 103.835 106.385 104.008 105.869L103.439 105.679C103.242 106.266 103.146 106.92 103.146 107.636H103.746ZM104.008 105.87C104.184 105.349 104.43 104.913 104.742 104.557L104.29 104.162C103.92 104.584 103.638 105.091 103.439 105.678L104.008 105.87ZM104.742 104.557C105.054 104.2 105.423 103.928 105.848 103.739L105.604 103.19C105.098 103.416 104.659 103.74 104.29 104.162L104.742 104.557ZM105.848 103.739C106.272 103.55 106.743 103.453 107.265 103.453V102.853C106.667 102.853 106.112 102.964 105.604 103.19L105.848 103.739ZM107.265 103.453C107.694 103.453 108.089 103.518 108.452 103.645L108.651 103.079C108.218 102.928 107.755 102.853 107.265 102.853V103.453ZM108.455 103.646C108.824 103.772 109.149 103.95 109.432 104.179L109.81 103.713C109.468 103.437 109.08 103.225 108.648 103.078L108.455 103.646ZM109.435 104.181C109.721 104.408 109.96 104.681 110.152 105L110.667 104.691C110.438 104.311 110.151 103.984 109.807 103.711L109.435 104.181ZM110.153 105.001C110.343 105.315 110.476 105.665 110.549 106.055L111.139 105.945C111.053 105.488 110.896 105.069 110.666 104.69L110.153 105.001ZM110.844 105.7H109.753V106.3H110.844V105.7ZM112.705 112H112.405V112.3H112.705V112ZM112.705 103.273V102.973H112.405V103.273H112.705ZM117.972 103.273H118.272V102.973H117.972V103.273ZM117.972 104.21V104.51H118.272V104.21H117.972ZM113.762 104.21V103.91H113.462V104.21H113.762ZM113.762 107.159H113.462V107.459H113.762V107.159ZM117.7 107.159H118V106.859H117.7V107.159ZM117.7 108.097V108.397H118V108.097H117.7ZM113.762 108.097V107.797H113.462V108.097H113.762ZM113.762 111.062H113.462V111.363H113.762V111.062ZM118.04 111.062H118.34V110.762H118.04V111.062ZM118.04 112V112.3H118.34V112H118.04ZM113.005 112V103.273H112.405V112H113.005ZM112.705 103.573H117.972V102.973H112.705V103.573ZM117.672 103.273V104.21H118.272V103.273H117.672ZM117.972 103.91H113.762V104.51H117.972V103.91ZM113.462 104.21V107.159H114.062V104.21H113.462ZM113.762 107.459H117.7V106.859H113.762V107.459ZM117.4 107.159V108.097H118V107.159H117.4ZM117.7 107.797H113.762V108.397H117.7V107.797ZM113.462 108.097V111.062H114.062V108.097H113.462ZM113.762 111.363H118.04V110.762H113.762V111.363ZM117.74 111.062V112H118.34V111.062H117.74ZM118.04 111.7H112.705V112.3H118.04V111.7Z" fill="white" mask="url(#path-2-outside-1_26_9)"/>
</svg>
